ffmpeg started on 2025-06-06 at 18:14:55
Report written to "D:\Convert\FFMetrics\reports\psnr_report-6.txt"
Log level: 32
Command line:
ffmpeg -hide_banner -nostdin -i "G:\\\xc0\xed\xe8\xec\xe5\\\xce\xed\xe3\xee\xe8\xed\xe3\xe8\\!_36_\xce\xf1\xe5\xed\xfc_2024\\DreamCast\\\xcf\xf0\xee\xf9\xe0\xe9, \xe6\xe8\xe7\xed\xfc \xe4\xf0\xe0\xea\xee\xed\xe0. \xc7\xe4\xf0\xe0\xe2\xf1\xf2\xe2\xf3\xe9, \xe6\xe8\xe7\xed\xfc \xf7\xe5\xeb\xee\xe2\xe5\xea\xe0\\[DC] Sayonara Ryuusei Konnichiwa Jinsei - 04_Telegram_HEVC.mkv" -i "G:\\\xc0\xed\xe8\xec\xe5\\\xce\xed\xe3\xee\xe8\xed\xe3\xe8\\!_36_\xce\xf1\xe5\xed\xfc_2024\\DreamCast\\\xcf\xf0\xee\xf9\xe0\xe9, \xe6\xe8\xe7\xed\xfc \xe4\xf0\xe0\xea\xee\xed\xe0. \xc7\xe4\xf0\xe0\xe2\xf1\xf2\xe2\xf3\xe9, \xe6\xe8\xe7\xed\xfc \xf7\xe5\xeb\xee\xe2\xe5\xea\xe0\\[DC] Sayonara Ryuusei Konnichiwa Jinsei - 04_Telegram.mp4" -lavfi "[0:v]settb=AVTB,setpts=PTS-STARTPTS,format=pix_fmts=yuv420p10,fps=24000/1001,scale=1920:1080:flags=bicubic[main];[1:v]settb=AVTB,setpts=PTS-STARTPTS,format=pix_fmts=yuv420p,fps=24000/1001,scale=1920:1080:flags=bicubic[ref];[main][ref]psnr=eof_action=endall:stats_file='D\\:/Convert/FFMetrics/logs/psnr_logfile-6.txt'" -f null -
Input #0, matroska,webm, from 'G:\Аниме\Онгоинги\!_36_Осень_2024\DreamCast\Прощай, жизнь дракона. Здравствуй, жизнь человека\[DC] Sayonara Ryuusei Konnichiwa Jinsei - 04_Telegram_HEVC.mkv':
  Metadata:
    COMPATIBLE_BRANDS: isomiso2avc1mp41
    MAJOR_BRAND     : isom
    MINOR_VERSION   : 512
    ENCODER         : Lavf61.7.100
  Duration: 00:24:16.85, start: -0.021000, bitrate: 1185 kb/s
  Stream #0:0: Video: hevc (Main 10), yuv420p10le(tv, bt709, progressive), 1920x1080 [SAR 1:1 DAR 16:9], 23.98 fps, 23.98 tbr, 1k tbn (default)
      Metadata:
        HANDLER_NAME    : VideoHandler
        VENDOR_ID       : [0][0][0][0]
        ENCODER         : Lavc61.19.100 libx265
        BPS             : 988279
        DURATION        : 00:24:16.621708333
        NUMBER_OF_FRAMES: 34924
        NUMBER_OF_BYTES : 179943668
        _STATISTICS_WRITING_APP: mkvpropedit v66.0.0 ('Josie') 64-bit
        _STATISTICS_WRITING_DATE_UTC: 2025-06-03 09:35:27
        _STATISTICS_TAGS: BPS DURATION NUMBER_OF_FRAMES NUMBER_OF_BYTES
  Stream #0:1: Audio: aac (LC), 48000 Hz, stereo, fltp (default)
      Metadata:
        HANDLER_NAME    : SoundHandler
        VENDOR_ID       : [0][0][0][0]
        ENCODER         : Lavc61.19.100 aac
        BPS             : 193189
        DURATION        : 00:24:16.853000000
        NUMBER_OF_FRAMES: 68291
        NUMBER_OF_BYTES : 35181085
        _STATISTICS_WRITING_APP: mkvpropedit v66.0.0 ('Josie') 64-bit
        _STATISTICS_WRITING_DATE_UTC: 2025-06-03 09:35:27
        _STATISTICS_TAGS: BPS DURATION NUMBER_OF_FRAMES NUMBER_OF_BYTES
Input #1, mov,mp4,m4a,3gp,3g2,mj2, from 'G:\Аниме\Онгоинги\!_36_Осень_2024\DreamCast\Прощай, жизнь дракона. Здравствуй, жизнь человека\[DC] Sayonara Ryuusei Konnichiwa Jinsei - 04_Telegram.mp4':
  Metadata:
    major_brand     : isom
    minor_version   : 512
    compatible_brands: isomiso2avc1mp41
    encoder         : Lavf61.1.100
  Duration: 00:24:16.83, start: 0.000000, bitrate: 3683 kb/s
  Stream #1:0[0x1](und): Video: h264 (High) (avc1 / 0x31637661), yuv420p(tv, bt709, progressive), 1920x1080 [SAR 1:1 DAR 16:9], 3536 kb/s, 23.98 fps, 23.98 tbr, 24k tbn (default)
      Metadata:
        handler_name    : VideoHandler
        vendor_id       : [0][0][0][0]
        encoder         : Lavc61.3.100 h264_qsv
  Stream #1:1[0x2](und): Audio: aac (HE-AACv2) (mp4a / 0x6134706D), 48000 Hz, stereo, fltp, 144 kb/s (default)
      Metadata:
        handler_name    : SoundHandler
        vendor_id       : [0][0][0][0]
Stream mapping:
  Stream #0:0 (hevc) -> settb:default
  Stream #1:0 (h264) -> settb:default
  psnr:default -> Stream #0:0 (wrapped_avframe)
  Stream #0:1 -> #0:1 (aac (native) -> pcm_s16le (native))
Output #0, null, to 'pipe:':
  Metadata:
    COMPATIBLE_BRANDS: isomiso2avc1mp41
    MAJOR_BRAND     : isom
    MINOR_VERSION   : 512
    encoder         : Lavf61.7.100
  Stream #0:0: Video: wrapped_avframe, yuv420p10le(tv, bt709, progressive), 1920x1080 [SAR 1:1 DAR 16:9], q=2-31, 200 kb/s, 23.98 fps, 23.98 tbn
      Metadata:
        encoder         : Lavc61.19.100 wrapped_avframe
  Stream #0:1: Audio: pcm_s16le, 48000 Hz, stereo, s16, 1536 kb/s (default)
      Metadata:
        HANDLER_NAME    : SoundHandler
        VENDOR_ID       : [0][0][0][0]
        _STATISTICS_TAGS: BPS DURATION NUMBER_OF_FRAMES NUMBER_OF_BYTES
        BPS             : 193189
        DURATION        : 00:24:16.853000000
        NUMBER_OF_FRAMES: 68291
        NUMBER_OF_BYTES : 35181085
        _STATISTICS_WRITING_APP: mkvpropedit v66.0.0 ('Josie') 64-bit
        _STATISTICS_WRITING_DATE_UTC: 2025-06-03 09:35:27
        encoder         : Lavc61.19.100 pcm_s16le
frame=  188 fps=0.0 q=-0.0 size=N/A time=00:00:07.84 bitrate=N/A speed=  15x    frame=  440 fps=426 q=-0.0 size=N/A time=00:00:18.35 bitrate=N/A speed=17.8x    frame=  714 fps=459 q=-0.0 size=N/A time=00:00:29.77 bitrate=N/A speed=19.1x    frame=  975 fps=473 q=-0.0 size=N/A time=00:00:40.66 bitrate=N/A speed=19.7x    frame= 1222 fps=472 q=-0.0 size=N/A time=00:00:50.96 bitrate=N/A speed=19.7x    frame= 1432 fps=461 q=-0.0 size=N/A time=00:00:59.72 bitrate=N/A speed=19.2x    frame= 1634 fps=452 q=-0.0 size=N/A time=00:01:08.15 bitrate=N/A speed=18.8x    frame= 1822 fps=441 q=-0.0 size=N/A time=00:01:15.99 bitrate=N/A speed=18.4x    frame= 2021 fps=436 q=-0.0 size=N/A time=00:01:24.29 bitrate=N/A speed=18.2x    frame= 2208 fps=428 q=-0.0 size=N/A time=00:01:32.09 bitrate=N/A speed=17.8x    frame= 2398 fps=423 q=-0.0 size=N/A time=00:01:40.01 bitrate=N/A speed=17.6x    frame= 2605 fps=420 q=-0.0 size=N/A time=00:01:48.65 bitrate=N/A speed=17.5x    frame= 2828 fps=422 q=-0.0 size=N/A time=00:01:57.95 bitrate=N/A speed=17.6x    frame= 3053 fps=422 q=-0.0 size=N/A time=00:02:07.33 bitrate=N/A speed=17.6x    frame= 3347 fps=433 q=-0.0 size=N/A time=00:02:19.59 bitrate=N/A speed=  18x    frame= 3611 fps=437 q=-0.0 size=N/A time=00:02:30.60 bitrate=N/A speed=18.2x    frame= 3862 fps=440 q=-0.0 size=N/A time=00:02:41.07 bitrate=N/A speed=18.4x    frame= 4148 fps=446 q=-0.0 size=N/A time=00:02:53.00 bitrate=N/A speed=18.6x    frame= 4431 fps=452 q=-0.0 size=N/A time=00:03:04.80 bitrate=N/A speed=18.8x    frame= 4682 fps=454 q=-0.0 size=N/A time=00:03:15.27 bitrate=N/A speed=18.9x    frame= 4943 fps=456 q=-0.0 size=N/A time=00:03:26.16 bitrate=N/A speed=  19x    frame= 5215 fps=460 q=-0.0 size=N/A time=00:03:37.50 bitrate=N/A speed=19.2x    frame= 5506 fps=464 q=-0.0 size=N/A time=00:03:49.64 bitrate=N/A speed=19.4x    frame= 5761 fps=465 q=-0.0 size=N/A time=00:04:00.28 bitrate=N/A speed=19.4x    frame= 6034 fps=468 q=-0.0 size=N/A time=00:04:11.66 bitrate=N/A speed=19.5x    frame= 6290 fps=469 q=-0.0 size=N/A time=00:04:22.34 bitrate=N/A speed=19.6x    frame= 6568 fps=472 q=-0.0 size=N/A time=00:04:33.94 bitrate=N/A speed=19.7x    frame= 6806 fps=471 q=-0.0 size=N/A time=00:04:43.86 bitrate=N/A speed=19.7x    frame= 7053 fps=472 q=-0.0 size=N/A time=00:04:54.16 bitrate=N/A speed=19.7x    frame= 7284 fps=471 q=-0.0 size=N/A time=00:05:03.80 bitrate=N/A speed=19.6x    frame= 7539 fps=471 q=-0.0 size=N/A time=00:05:14.43 bitrate=N/A speed=19.7x    frame= 7807 fps=473 q=-0.0 size=N/A time=00:05:25.61 bitrate=N/A speed=19.7x    frame= 8085 fps=475 q=-0.0 size=N/A time=00:05:37.21 bitrate=N/A speed=19.8x    frame= 8360 fps=477 q=-0.0 size=N/A time=00:05:48.68 bitrate=N/A speed=19.9x    frame= 8641 fps=479 q=-0.0 size=N/A time=00:06:00.40 bitrate=N/A speed=  20x    frame= 8891 fps=479 q=-0.0 size=N/A time=00:06:10.82 bitrate=N/A speed=  20x    frame= 9141 fps=479 q=-0.0 size=N/A time=00:06:21.25 bitrate=N/A speed=  20x    frame= 9403 fps=480 q=-0.0 size=N/A time=00:06:32.18 bitrate=N/A speed=  20x    frame= 9668 fps=481 q=-0.0 size=N/A time=00:06:43.23 bitrate=N/A speed=  20x    frame= 9952 fps=482 q=-0.0 size=N/A time=00:06:55.08 bitrate=N/A speed=20.1x    frame=10229 fps=484 q=-0.0 size=N/A time=00:07:06.63 bitrate=N/A speed=20.2x    frame=10496 fps=485 q=-0.0 size=N/A time=00:07:17.77 bitrate=N/A speed=20.2x    frame=10753 fps=485 q=-0.0 size=N/A time=00:07:28.48 bitrate=N/A speed=20.2x    frame=11020 fps=485 q=-0.0 size=N/A time=00:07:39.62 bitrate=N/A speed=20.2x    frame=11297 fps=487 q=-0.0 size=N/A time=00:07:51.17 bitrate=N/A speed=20.3x    frame=11561 fps=487 q=-0.0 size=N/A time=00:08:02.19 bitrate=N/A speed=20.3x    frame=11842 fps=489 q=-0.0 size=N/A time=00:08:13.91 bitrate=N/A speed=20.4x    frame=12107 fps=489 q=-0.0 size=N/A time=00:08:24.96 bitrate=N/A speed=20.4x    frame=12380 fps=490 q=-0.0 size=N/A time=00:08:36.34 bitrate=N/A speed=20.4x    frame=12665 fps=491 q=-0.0 size=N/A time=00:08:48.23 bitrate=N/A speed=20.5x    frame=12942 fps=492 q=-0.0 size=N/A time=00:08:59.78 bitrate=N/A speed=20.5x    frame=13219 fps=493 q=-0.0 size=N/A time=00:09:11.34 bitrate=N/A speed=20.6x    frame=13479 fps=493 q=-0.0 size=N/A time=00:09:22.18 bitrate=N/A speed=20.6x    frame=13728 fps=493 q=-0.0 size=N/A time=00:09:32.57 bitrate=N/A speed=20.6x    frame=13999 fps=494 q=-0.0 size=N/A time=00:09:43.87 bitrate=N/A speed=20.6x    frame=14262 fps=494 q=-0.0 size=N/A time=00:09:54.84 bitrate=N/A speed=20.6x    frame=14539 fps=495 q=-0.0 size=N/A time=00:10:06.39 bitrate=N/A speed=20.6x    frame=14815 fps=495 q=-0.0 size=N/A time=00:10:17.90 bitrate=N/A speed=20.7x    frame=15041 fps=494 q=-0.0 size=N/A time=00:10:27.33 bitrate=N/A speed=20.6x    frame=15247 fps=493 q=-0.0 size=N/A time=00:10:35.92 bitrate=N/A speed=20.5x    frame=15451 fps=491 q=-0.0 size=N/A time=00:10:44.43 bitrate=N/A speed=20.5x    frame=15681 fps=490 q=-0.0 size=N/A time=00:10:54.02 bitrate=N/A speed=20.5x    frame=15877 fps=489 q=-0.0 size=N/A time=00:11:02.20 bitrate=N/A speed=20.4x    frame=16076 fps=487 q=-0.0 size=N/A time=00:11:10.50 bitrate=N/A speed=20.3x    frame=16271 fps=485 q=-0.0 size=N/A time=00:11:18.63 bitrate=N/A speed=20.2x    frame=16492 fps=484 q=-0.0 size=N/A time=00:11:27.85 bitrate=N/A speed=20.2x    frame=16699 fps=483 q=-0.0 size=N/A time=00:11:36.48 bitrate=N/A speed=20.2x    frame=16890 fps=482 q=-0.0 size=N/A time=00:11:44.45 bitrate=N/A speed=20.1x    frame=17151 fps=482 q=-0.0 size=N/A time=00:11:55.33 bitrate=N/A speed=20.1x    frame=17386 fps=482 q=-0.0 size=N/A time=00:12:05.14 bitrate=N/A speed=20.1x    frame=17607 fps=481 q=-0.0 size=N/A time=00:12:14.35 bitrate=N/A speed=20.1x    frame=17874 fps=481 q=-0.0 size=N/A time=00:12:25.49 bitrate=N/A speed=20.1x    frame=18100 fps=481 q=-0.0 size=N/A time=00:12:34.92 bitrate=N/A speed=20.1x    frame=18317 fps=480 q=-0.0 size=N/A time=00:12:43.97 bitrate=N/A speed=  20x    frame=18521 fps=479 q=-0.0 size=N/A time=00:12:52.48 bitrate=N/A speed=  20x    frame=18758 fps=479 q=-0.0 size=N/A time=00:13:02.36 bitrate=N/A speed=  20x    frame=18988 fps=478 q=-0.0 size=N/A time=00:13:11.95 bitrate=N/A speed=19.9x    frame=19193 fps=477 q=-0.0 size=N/A time=00:13:20.50 bitrate=N/A speed=19.9x    frame=19424 fps=477 q=-0.0 size=N/A time=00:13:30.14 bitrate=N/A speed=19.9x    frame=19600 fps=475 q=-0.0 size=N/A time=00:13:37.48 bitrate=N/A speed=19.8x    frame=19831 fps=475 q=-0.0 size=N/A time=00:13:47.11 bitrate=N/A speed=19.8x    frame=20032 fps=474 q=-0.0 size=N/A time=00:13:55.50 bitrate=N/A speed=19.8x    frame=20263 fps=473 q=-0.0 size=N/A time=00:14:05.13 bitrate=N/A speed=19.7x    frame=20489 fps=473 q=-0.0 size=N/A time=00:14:14.56 bitrate=N/A speed=19.7x    frame=20710 fps=472 q=-0.0 size=N/A time=00:14:23.77 bitrate=N/A speed=19.7x    frame=20955 fps=473 q=-0.0 size=N/A time=00:14:33.99 bitrate=N/A speed=19.7x    frame=21229 fps=473 q=-0.0 size=N/A time=00:14:45.42 bitrate=N/A speed=19.7x    frame=21486 fps=474 q=-0.0 size=N/A time=00:14:56.14 bitrate=N/A speed=19.8x    frame=21720 fps=473 q=-0.0 size=N/A time=00:15:05.90 bitrate=N/A speed=19.7x    frame=21897 fps=472 q=-0.0 size=N/A time=00:15:13.28 bitrate=N/A speed=19.7x    frame=22137 fps=472 q=-0.0 size=N/A time=00:15:23.29 bitrate=N/A speed=19.7x    frame=22390 fps=472 q=-0.0 size=N/A time=00:15:33.84 bitrate=N/A speed=19.7x    frame=22625 fps=472 q=-0.0 size=N/A time=00:15:43.65 bitrate=N/A speed=19.7x    frame=22908 fps=473 q=-0.0 size=N/A time=00:15:55.45 bitrate=N/A speed=19.7x    frame=23165 fps=473 q=-0.0 size=N/A time=00:16:06.17 bitrate=N/A speed=19.7x    frame=23434 fps=473 q=-0.0 size=N/A time=00:16:17.39 bitrate=N/A speed=19.7x    frame=23714 fps=474 q=-0.0 size=N/A time=00:16:29.07 bitrate=N/A speed=19.8x    frame=23960 fps=474 q=-0.0 size=N/A time=00:16:39.33 bitrate=N/A speed=19.8x    frame=24248 fps=475 q=-0.0 size=N/A time=00:16:51.34 bitrate=N/A speed=19.8x    frame=24522 fps=475 q=-0.0 size=N/A time=00:17:02.77 bitrate=N/A speed=19.8x    frame=24783 fps=476 q=-0.0 size=N/A time=00:17:13.65 bitrate=N/A speed=19.8x    frame=25034 fps=476 q=-0.0 size=N/A time=00:17:24.12 bitrate=N/A speed=19.8x    frame=25278 fps=476 q=-0.0 size=N/A time=00:17:34.30 bitrate=N/A speed=19.8x    frame=25517 fps=476 q=-0.0 size=N/A time=00:17:44.27 bitrate=N/A speed=19.8x    frame=25700 fps=474 q=-0.0 size=N/A time=00:17:51.90 bitrate=N/A speed=19.8x    frame=25969 fps=475 q=-0.0 size=N/A time=00:18:03.12 bitrate=N/A speed=19.8x    frame=26243 fps=475 q=-0.0 size=N/A time=00:18:14.55 bitrate=N/A speed=19.8x    frame=26509 fps=476 q=-0.0 size=N/A time=00:18:25.64 bitrate=N/A speed=19.8x    frame=26798 fps=477 q=-0.0 size=N/A time=00:18:37.69 bitrate=N/A speed=19.9x    frame=27056 fps=477 q=-0.0 size=N/A time=00:18:48.46 bitrate=N/A speed=19.9x    frame=27286 fps=477 q=-0.0 size=N/A time=00:18:58.05 bitrate=N/A speed=19.9x    frame=27561 fps=477 q=-0.0 size=N/A time=00:19:09.52 bitrate=N/A speed=19.9x    frame=27827 fps=477 q=-0.0 size=N/A time=00:19:20.61 bitrate=N/A speed=19.9x    frame=28102 fps=478 q=-0.0 size=N/A time=00:19:32.08 bitrate=N/A speed=19.9x    frame=28356 fps=478 q=-0.0 size=N/A time=00:19:42.68 bitrate=N/A speed=19.9x    frame=28627 fps=478 q=-0.0 size=N/A time=00:19:53.98 bitrate=N/A speed=  20x    frame=28870 fps=478 q=-0.0 size=N/A time=00:20:04.11 bitrate=N/A speed=  20x    frame=29110 fps=478 q=-0.0 size=N/A time=00:20:14.12 bitrate=N/A speed=19.9x    frame=29374 fps=479 q=-0.0 size=N/A time=00:20:25.14 bitrate=N/A speed=  20x    frame=29652 fps=479 q=-0.0 size=N/A time=00:20:36.73 bitrate=N/A speed=  20x    frame=29919 fps=479 q=-0.0 size=N/A time=00:20:47.87 bitrate=N/A speed=  20x    frame=30137 fps=479 q=-0.0 size=N/A time=00:20:56.96 bitrate=N/A speed=  20x    frame=30401 fps=479 q=-0.0 size=N/A time=00:21:07.97 bitrate=N/A speed=  20x    frame=30678 fps=480 q=-0.0 size=N/A time=00:21:19.52 bitrate=N/A speed=  20x    frame=30920 fps=480 q=-0.0 size=N/A time=00:21:29.62 bitrate=N/A speed=  20x    frame=31164 fps=479 q=-0.0 size=N/A time=00:21:39.79 bitrate=N/A speed=  20x    frame=31423 fps=480 q=-0.0 size=N/A time=00:21:50.60 bitrate=N/A speed=  20x    frame=31695 fps=480 q=-0.0 size=N/A time=00:22:01.94 bitrate=N/A speed=  20x    frame=31957 fps=480 q=-0.0 size=N/A time=00:22:12.87 bitrate=N/A speed=  20x    frame=32173 fps=480 q=-0.0 size=N/A time=00:22:21.88 bitrate=N/A speed=  20x    frame=32373 fps=479 q=-0.0 size=N/A time=00:22:30.22 bitrate=N/A speed=  20x    frame=32584 fps=479 q=-0.0 size=N/A time=00:22:39.02 bitrate=N/A speed=  20x    frame=32799 fps=478 q=-0.0 size=N/A time=00:22:47.99 bitrate=N/A speed=19.9x    frame=33035 fps=478 q=-0.0 size=N/A time=00:22:57.83 bitrate=N/A speed=19.9x    frame=33265 fps=478 q=-0.0 size=N/A time=00:23:07.42 bitrate=N/A speed=19.9x    frame=33490 fps=477 q=-0.0 size=N/A time=00:23:16.81 bitrate=N/A speed=19.9x    frame=33697 fps=477 q=-0.0 size=N/A time=00:23:25.44 bitrate=N/A speed=19.9x    frame=33918 fps=477 q=-0.0 size=N/A time=00:23:34.66 bitrate=N/A speed=19.9x    frame=34089 fps=475 q=-0.0 size=N/A time=00:23:41.79 bitrate=N/A speed=19.8x    frame=34240 fps=474 q=-0.0 size=N/A time=00:23:48.09 bitrate=N/A speed=19.8x    frame=34419 fps=473 q=-0.0 size=N/A time=00:23:55.55 bitrate=N/A speed=19.7x    frame=34658 fps=473 q=-0.0 size=N/A time=00:24:05.52 bitrate=N/A speed=19.7x    frame=34897 fps=473 q=-0.0 size=N/A time=00:24:15.49 bitrate=N/A speed=19.7x    [Parsed_psnr_10 @ 0000015a3563b680] PSNR y:48.516720 u:50.096355 v:50.463566 average:49.027857 min:41.657986 max:inf
[out#0/null @ 0000015a34d85b80] video:15006KiB audio:273164KiB subtitle:0KiB other streams:0KiB global headers:0KiB muxing overhead: unknown
frame=34924 fps=473 q=-0.0 Lsize=N/A time=00:24:16.62 bitrate=N/A speed=19.7x    
